<mxfile host="app.diagrams.net" modified="2022-07-02T21:32:11.008Z" agent="5.0 (Windows NT 10.0; Win64; x64) AppleWebKit/537.36 (KHTML, like Gecko) Chrome/103.0.0.0 Safari/537.36" etag="QThMNV9LVMYoEUqOjOLz" version="20.0.4" type="github">
  <diagram id="wccBdDFyRFkUmfeS-EkB" name="Page-1">
    <mxGraphModel dx="1422" dy="762" grid="1" gridSize="10" guides="1" tooltips="1" connect="1" arrows="1" fold="1" page="1" pageScale="1" pageWidth="827" pageHeight="1169" math="0" shadow="0">
      <root>
        <mxCell id="0" />
        <mxCell id="1" parent="0" />
        <mxCell id="nXmtdxjM0oqpbhqeiXkt-5" value="Users" style="swimlane;fontStyle=0;childLayout=stackLayout;horizontal=1;startSize=30;horizontalStack=0;resizeParent=1;resizeParentMax=0;resizeLast=0;collapsible=1;marginBottom=0;swimlaneLine=1;" parent="1" vertex="1">
          <mxGeometry x="270" y="565" width="100" height="120" as="geometry" />
        </mxCell>
        <mxCell id="nXmtdxjM0oqpbhqeiXkt-6" value="UserId" style="text;strokeColor=none;fillColor=none;align=left;verticalAlign=middle;spacingLeft=4;spacingRight=4;overflow=hidden;points=[[0,0.5],[1,0.5]];portConstraint=eastwest;rotatable=0;" parent="nXmtdxjM0oqpbhqeiXkt-5" vertex="1">
          <mxGeometry y="30" width="100" height="30" as="geometry" />
        </mxCell>
        <mxCell id="nXmtdxjM0oqpbhqeiXkt-7" value="PermissionType" style="text;strokeColor=default;fillColor=none;align=left;verticalAlign=middle;spacingLeft=4;spacingRight=4;overflow=hidden;points=[[0,0.5],[1,0.5]];portConstraint=eastwest;rotatable=0;" parent="nXmtdxjM0oqpbhqeiXkt-5" vertex="1">
          <mxGeometry y="60" width="100" height="30" as="geometry" />
        </mxCell>
        <mxCell id="nXmtdxjM0oqpbhqeiXkt-8" value="CreatedDate" style="text;strokeColor=default;fillColor=none;align=left;verticalAlign=middle;spacingLeft=4;spacingRight=4;overflow=hidden;points=[[0,0.5],[1,0.5]];portConstraint=eastwest;rotatable=0;" parent="nXmtdxjM0oqpbhqeiXkt-5" vertex="1">
          <mxGeometry y="90" width="100" height="30" as="geometry" />
        </mxCell>
        <mxCell id="nXmtdxjM0oqpbhqeiXkt-9" value="Reviews" style="swimlane;fontStyle=0;childLayout=stackLayout;horizontal=1;startSize=30;horizontalStack=0;resizeParent=1;resizeParentMax=0;resizeLast=0;collapsible=1;marginBottom=0;" parent="1" vertex="1">
          <mxGeometry x="40" y="440" width="140" height="120" as="geometry" />
        </mxCell>
        <mxCell id="nXmtdxjM0oqpbhqeiXkt-10" value="ReviewId" style="text;strokeColor=none;fillColor=none;align=left;verticalAlign=middle;spacingLeft=4;spacingRight=4;overflow=hidden;points=[[0,0.5],[1,0.5]];portConstraint=eastwest;rotatable=0;" parent="nXmtdxjM0oqpbhqeiXkt-9" vertex="1">
          <mxGeometry y="30" width="140" height="30" as="geometry" />
        </mxCell>
        <mxCell id="nXmtdxjM0oqpbhqeiXkt-11" value="TutorId" style="text;strokeColor=default;fillColor=none;align=left;verticalAlign=middle;spacingLeft=4;spacingRight=4;overflow=hidden;points=[[0,0.5],[1,0.5]];portConstraint=eastwest;rotatable=0;" parent="nXmtdxjM0oqpbhqeiXkt-9" vertex="1">
          <mxGeometry y="60" width="140" height="30" as="geometry" />
        </mxCell>
        <mxCell id="nXmtdxjM0oqpbhqeiXkt-12" value="isValidated" style="text;strokeColor=none;fillColor=none;align=left;verticalAlign=middle;spacingLeft=4;spacingRight=4;overflow=hidden;points=[[0,0.5],[1,0.5]];portConstraint=eastwest;rotatable=0;" parent="nXmtdxjM0oqpbhqeiXkt-9" vertex="1">
          <mxGeometry y="90" width="140" height="30" as="geometry" />
        </mxCell>
        <mxCell id="nXmtdxjM0oqpbhqeiXkt-13" value="LastLoginDate" style="text;strokeColor=default;fillColor=none;align=left;verticalAlign=middle;spacingLeft=4;spacingRight=4;overflow=hidden;points=[[0,0.5],[1,0.5]];portConstraint=eastwest;rotatable=0;rounded=0;" parent="1" vertex="1">
          <mxGeometry x="270" y="685" width="100" height="30" as="geometry" />
        </mxCell>
        <mxCell id="nXmtdxjM0oqpbhqeiXkt-14" value="IsActive" style="text;strokeColor=default;fillColor=none;align=left;verticalAlign=middle;spacingLeft=4;spacingRight=4;overflow=hidden;points=[[0,0.5],[1,0.5]];portConstraint=eastwest;rotatable=0;" parent="1" vertex="1">
          <mxGeometry x="270" y="715" width="100" height="30" as="geometry" />
        </mxCell>
        <mxCell id="nXmtdxjM0oqpbhqeiXkt-18" value="Timestamp" style="text;strokeColor=default;fillColor=none;align=left;verticalAlign=middle;spacingLeft=4;spacingRight=4;overflow=hidden;points=[[0,0.5],[1,0.5]];portConstraint=eastwest;rotatable=0;" parent="1" vertex="1">
          <mxGeometry x="40" y="560" width="140" height="30" as="geometry" />
        </mxCell>
        <mxCell id="nXmtdxjM0oqpbhqeiXkt-19" value="Description" style="text;strokeColor=default;fillColor=none;align=left;verticalAlign=middle;spacingLeft=4;spacingRight=4;overflow=hidden;points=[[0,0.5],[1,0.5]];portConstraint=eastwest;rotatable=0;" parent="1" vertex="1">
          <mxGeometry x="40" y="620" width="140" height="30" as="geometry" />
        </mxCell>
        <mxCell id="nXmtdxjM0oqpbhqeiXkt-20" style="edgeStyle=orthogonalEdgeStyle;rounded=0;orthogonalLoop=1;jettySize=auto;html=1;exitX=1;exitY=0.5;exitDx=0;exitDy=0;entryX=0;entryY=0.5;entryDx=0;entryDy=0;" parent="1" source="nXmtdxjM0oqpbhqeiXkt-21" target="nXmtdxjM0oqpbhqeiXkt-6" edge="1">
          <mxGeometry relative="1" as="geometry" />
        </mxCell>
        <mxCell id="nXmtdxjM0oqpbhqeiXkt-21" value="UserId" style="text;strokeColor=default;fillColor=none;align=left;verticalAlign=middle;spacingLeft=4;spacingRight=4;overflow=hidden;points=[[0,0.5],[1,0.5]];portConstraint=eastwest;rotatable=0;" parent="1" vertex="1">
          <mxGeometry x="40" y="590" width="140" height="30" as="geometry" />
        </mxCell>
        <mxCell id="nXmtdxjM0oqpbhqeiXkt-22" value="Login" style="text;strokeColor=default;fillColor=none;align=left;verticalAlign=middle;spacingLeft=4;spacingRight=4;overflow=hidden;points=[[0,0.5],[1,0.5]];portConstraint=eastwest;rotatable=0;" parent="1" vertex="1">
          <mxGeometry x="270" y="745" width="100" height="30" as="geometry" />
        </mxCell>
        <mxCell id="nXmtdxjM0oqpbhqeiXkt-23" value="Password" style="text;strokeColor=default;fillColor=none;align=left;verticalAlign=middle;spacingLeft=4;spacingRight=4;overflow=hidden;points=[[0,0.5],[1,0.5]];portConstraint=eastwest;rotatable=0;" parent="1" vertex="1">
          <mxGeometry x="270" y="775" width="100" height="30" as="geometry" />
        </mxCell>
        <mxCell id="nXmtdxjM0oqpbhqeiXkt-24" value="Job++" style="rounded=1;whiteSpace=wrap;html=1;strokeColor=default;" parent="1" vertex="1">
          <mxGeometry x="410" y="290" width="120" height="60" as="geometry" />
        </mxCell>
        <mxCell id="KpYlYVe4BkuqSwnm_e6h-20" style="edgeStyle=orthogonalEdgeStyle;rounded=0;orthogonalLoop=1;jettySize=auto;html=1;exitX=1;exitY=0.5;exitDx=0;exitDy=0;entryX=0;entryY=0.5;entryDx=0;entryDy=0;" edge="1" parent="1" source="nXmtdxjM0oqpbhqeiXkt-27" target="KpYlYVe4BkuqSwnm_e6h-17">
          <mxGeometry relative="1" as="geometry" />
        </mxCell>
        <mxCell id="nXmtdxjM0oqpbhqeiXkt-27" value="TechnologyLevelId" style="rounded=0;whiteSpace=wrap;html=1;fillColor=none;align=left;" parent="1" vertex="1">
          <mxGeometry x="270" y="805" width="100" height="35" as="geometry" />
        </mxCell>
        <mxCell id="KpYlYVe4BkuqSwnm_e6h-1" value="Technologies" style="swimlane;fontStyle=0;childLayout=stackLayout;horizontal=1;startSize=30;horizontalStack=0;resizeParent=1;resizeParentMax=0;resizeLast=0;collapsible=1;marginBottom=0;fillColor=none;" vertex="1" parent="1">
          <mxGeometry x="590" y="840" width="140" height="90" as="geometry" />
        </mxCell>
        <mxCell id="KpYlYVe4BkuqSwnm_e6h-2" value="TechnologyId" style="text;strokeColor=none;fillColor=none;align=left;verticalAlign=middle;spacingLeft=4;spacingRight=4;overflow=hidden;points=[[0,0.5],[1,0.5]];portConstraint=eastwest;rotatable=0;" vertex="1" parent="KpYlYVe4BkuqSwnm_e6h-1">
          <mxGeometry y="30" width="140" height="30" as="geometry" />
        </mxCell>
        <mxCell id="KpYlYVe4BkuqSwnm_e6h-5" value="TechnologyName" style="rounded=0;whiteSpace=wrap;html=1;align=left;" vertex="1" parent="KpYlYVe4BkuqSwnm_e6h-1">
          <mxGeometry y="60" width="140" height="30" as="geometry" />
        </mxCell>
        <mxCell id="KpYlYVe4BkuqSwnm_e6h-9" value="Levels" style="swimlane;fontStyle=0;childLayout=stackLayout;horizontal=1;startSize=30;horizontalStack=0;resizeParent=1;resizeParentMax=0;resizeLast=0;collapsible=1;marginBottom=0;fillColor=none;" vertex="1" parent="1">
          <mxGeometry x="590" y="620" width="140" height="90" as="geometry" />
        </mxCell>
        <mxCell id="KpYlYVe4BkuqSwnm_e6h-10" value="LevelId" style="text;strokeColor=none;fillColor=none;align=left;verticalAlign=middle;spacingLeft=4;spacingRight=4;overflow=hidden;points=[[0,0.5],[1,0.5]];portConstraint=eastwest;rotatable=0;" vertex="1" parent="KpYlYVe4BkuqSwnm_e6h-9">
          <mxGeometry y="30" width="140" height="30" as="geometry" />
        </mxCell>
        <mxCell id="KpYlYVe4BkuqSwnm_e6h-11" value="LevelName" style="rounded=0;whiteSpace=wrap;html=1;align=left;" vertex="1" parent="KpYlYVe4BkuqSwnm_e6h-9">
          <mxGeometry y="60" width="140" height="30" as="geometry" />
        </mxCell>
        <mxCell id="KpYlYVe4BkuqSwnm_e6h-16" value="TechnologyLevel" style="swimlane;fontStyle=0;childLayout=stackLayout;horizontal=1;startSize=30;horizontalStack=0;resizeParent=1;resizeParentMax=0;resizeLast=0;collapsible=1;marginBottom=0;fillColor=none;" vertex="1" parent="1">
          <mxGeometry x="440" y="720" width="140" height="60" as="geometry" />
        </mxCell>
        <mxCell id="KpYlYVe4BkuqSwnm_e6h-17" value="TechnologyLevelId" style="text;strokeColor=none;fillColor=none;align=left;verticalAlign=middle;spacingLeft=4;spacingRight=4;overflow=hidden;points=[[0,0.5],[1,0.5]];portConstraint=eastwest;rotatable=0;" vertex="1" parent="KpYlYVe4BkuqSwnm_e6h-16">
          <mxGeometry y="30" width="140" height="30" as="geometry" />
        </mxCell>
        <mxCell id="KpYlYVe4BkuqSwnm_e6h-22" style="edgeStyle=orthogonalEdgeStyle;rounded=0;orthogonalLoop=1;jettySize=auto;html=1;exitX=1;exitY=0.5;exitDx=0;exitDy=0;entryX=1;entryY=0.5;entryDx=0;entryDy=0;" edge="1" parent="1" source="KpYlYVe4BkuqSwnm_e6h-19" target="KpYlYVe4BkuqSwnm_e6h-10">
          <mxGeometry relative="1" as="geometry" />
        </mxCell>
        <mxCell id="KpYlYVe4BkuqSwnm_e6h-19" value="LevelId" style="text;strokeColor=default;fillColor=none;align=left;verticalAlign=middle;spacingLeft=4;spacingRight=4;overflow=hidden;points=[[0,0.5],[1,0.5]];portConstraint=eastwest;rotatable=0;" vertex="1" parent="1">
          <mxGeometry x="440" y="780" width="140" height="30" as="geometry" />
        </mxCell>
        <mxCell id="KpYlYVe4BkuqSwnm_e6h-23" style="edgeStyle=orthogonalEdgeStyle;rounded=0;orthogonalLoop=1;jettySize=auto;html=1;exitX=1;exitY=0.5;exitDx=0;exitDy=0;entryX=1;entryY=0.5;entryDx=0;entryDy=0;" edge="1" parent="1" source="KpYlYVe4BkuqSwnm_e6h-21" target="KpYlYVe4BkuqSwnm_e6h-2">
          <mxGeometry relative="1" as="geometry" />
        </mxCell>
        <mxCell id="KpYlYVe4BkuqSwnm_e6h-21" value="TechnologyId" style="text;strokeColor=default;fillColor=none;align=left;verticalAlign=middle;spacingLeft=4;spacingRight=4;overflow=hidden;points=[[0,0.5],[1,0.5]];portConstraint=eastwest;rotatable=0;" vertex="1" parent="1">
          <mxGeometry x="440" y="810" width="140" height="30" as="geometry" />
        </mxCell>
        <mxCell id="KpYlYVe4BkuqSwnm_e6h-25" value="FirstName" style="text;strokeColor=default;fillColor=none;align=left;verticalAlign=middle;spacingLeft=4;spacingRight=4;overflow=hidden;points=[[0,0.5],[1,0.5]];portConstraint=eastwest;rotatable=0;" vertex="1" parent="1">
          <mxGeometry x="270" y="840" width="100" height="30" as="geometry" />
        </mxCell>
        <mxCell id="KpYlYVe4BkuqSwnm_e6h-26" value="LastName" style="text;strokeColor=default;fillColor=default;align=left;verticalAlign=middle;spacingLeft=4;spacingRight=4;overflow=hidden;points=[[0,0.5],[1,0.5]];portConstraint=eastwest;rotatable=0;" vertex="1" parent="1">
          <mxGeometry x="270" y="870" width="100" height="30" as="geometry" />
        </mxCell>
      </root>
    </mxGraphModel>
  </diagram>
</mxfile>
